<?xml version="1.0" encoding="utf-8"?>
<!-- Generator: Adobe Illustrator 23.0.1, SVG Export Plug-In . SVG Version: 6.00 Build 0)  -->
<svg version="1.1" id="Layer_1" xmlns="http://www.w3.org/2000/svg" xmlns:xlink="http://www.w3.org/1999/xlink" x="0px" y="0px"
	 viewBox="0 0 560 288" style="enable-background:new 0 0 560 288;" xml:space="preserve">
<style type="text/css">
	.st0{stroke:#FFFFFF;}
	.st1{fill:none;}
</style>
<path class="st0" d="M260.66,209.48c0,0-2.77,1.05-1.62,4.01c1.15,2.96-7.16,2.48-8.02,4.01c-0.86,1.53-4.11,2.96-5.25,2.86
	c0,0-5.28-4.43-6.68,3.98c0,0-5.05,2.57-2.94,7.93s0.65,5.91,8.29,16.92c0,0,3.9,3.8,12.25-0.92c8.35-4.72-2.66-7.48-2.66-7.48
	s3.36-0.42,1.68-1.59c0,0,14.92,4.09,19.38,0.81c0,0,15.17-3.59,23.16-12.32c0.13,0.4,9.13-3.04,14.52-0.91c0,0,3.95,1.03,2.8,2.56
	c-1.15,1.53-3.35,2.25-2.82,3.3c0.53,1.05-2.15,2.11-2.15,2.11s-4.64,2.58,0.33,6.7c0,0-3.35,3.73,0.14,6.13
	c0,0-3.92,7.47,6.94,8.04s8.09,1.77,25.32,0.53c0,0,8.81-7.61-11.06-6.65c0,0,1.44-0.91,0.29-1.2c-1.15-0.29,6.94-0.86,6.17-6.94
	c0,0,4.5,0.53,5.22-10c0.72-10.53,3.69-10.15-6.17-15.65c0,0,1.91-5.42-0.01-9.79c0,0,25.66-1.81,10.75-22.36c0,0-0.11-3.3-1.6-4.68
	c0,0,2.45-6.92-5.32-7.99c0,0,4.05-2.34-0.11-7.56c0,0,5.54,0.53,4.15-2.66c0,0,1.92-3.09-0.43-3.09c0,0-1.92-2.34-4.79-1.06
	c0,0,4.9-23.42-6.5-28.75c0,0,6.6-1.81,8.73-4.05c2.13-2.24,26.19,1.06,14.05-30.24c0,0-2.34-6.07-2.02-7.24
	s-0.32-19.06-20.55-19.91c0,0-9.8-3.19-10.54-4.47c0,0,0.75-3.24-1.09-3.79c0,0-0.41-4.2,3.68-5.15s9.35-6.92,9.65-9.31
	s-0.85-10.68,0.51-12.14s2.59-2.35,1.6-4.13c-0.99-1.77-2.9-3.38-8.7,1.57c0,0-4.57-2.29-6.34,0.34s1.33,3.17,1.33,3.17
	s-0.07,3.07-1.43,4.6s-12.21,4.67-14.91,7.5s-5.22,4.06-6.86,8.05s-1.64,3.99-1.64,3.99s-1.53-3.63-0.86-6.37
	c0.67-2.74,2.46-0.39,0.62-4.59c0,0,0.39-5.32-1.06-5.26c-1.45,0.06-4.53-2.91-4.81-2.18c0,0-0.84-2.35-6.27,0.45
	c0,0-2.35,0.9-4.98,0.56c0,0-4.36,3.64-5.82,3.81c0,0-1.9,4.14-3.19,5.09c-1.29,0.95,17.96,20.7,16.68,31.9
	c0,0-6.16,0.61-10.17-1.73c0,0-12.7-20.22-15.88-20.97c0,0-1.17-3.18-0.75-4.09c0.42-0.92-3.09-1.42-3.68-1c0,0-3.43-3.09-4.76-1.5
	c0,0-3.59-1.84-5.43,1.17c0,0-8.27,1.5-6.85,5.77c0,0-3.59,2.67-3.18,6.1c0,0-2.92,5.43,1.75,9.02c4.68,3.59,16.04,13.2,15.79,15.88
	c0,0-19.97-0.75-22.98,10.36c0,0-5.85-16.88-8.94-15.38c0,0-0.92-11.11-7.02-6.52c0,0-3.43-1.25-7.1,2.42c0,0-6.35,2.84-5.52,5.52
	c0,0-13.87,13.04-5.93,25.74c0,0,6.02,5.1,7.1,5.77s-0.58,1.67,1.84,2.84c0,0,4.6,4.68,2.09,25.99c0,0-0.33,19.22,3.59,23.31
	c0,0-21.85,1.56-15.83,17.66s15.94,10.73,17.73,7.97c0,0-10.73,8.29-16.43-8.29c-5.69-16.59,15.13-15.78,15.13-15.78
	s16.91,19.19,36.76,23.91C251.06,194.09,244.72,199.98,260.66,209.48z"/>
<path class="st1" d="M295.97,75.6"/>
<path class="st1" d="M245.61,156.57c-4.21-2.09-0.83-5.62-0.83-5.62"/>
</svg>
